<?xml version="1.0" encoding="UTF-8"?>
<svg xmlns="http://www.w3.org/2000/svg" xmlns:xlink="http://www.w3.org/1999/xlink" width="20px" height="20px" viewBox="0 0 20 20" version="1.1">
<g id="surface1">
<path style=" stroke:none;fill-rule:nonzero;fill:rgb(0%,0%,0%);fill-opacity:1;" d="M 10 0 C 4.476562 0 0 4.476562 0 10 C 0 14.417969 2.863281 18.167969 6.839844 19.488281 C 7.339844 19.582031 7.5 19.273438 7.5 19.007812 L 7.5 17.148438 C 4.71875 17.75 4.140625 15.964844 4.140625 15.964844 C 3.683594 14.8125 3.027344 14.503906 3.027344 14.503906 C 2.121094 13.882812 3.097656 13.894531 3.097656 13.894531 C 4.101562 13.964844 4.628906 14.925781 4.628906 14.925781 C 5.523438 16.453125 6.96875 16.011719 7.539062 15.757812 C 7.628906 15.113281 7.886719 14.671875 8.175781 14.421875 C 5.953125 14.167969 3.621094 13.308594 3.621094 9.476562 C 3.621094 8.386719 4.011719 7.496094 4.648438 6.792969 C 4.546875 6.542969 4.203125 5.523438 4.746094 4.148438 C 4.746094 4.148438 5.585938 3.878906 7.496094 5.171875 C 8.296875 4.949219 9.148438 4.839844 10 4.835938 C 10.851562 4.839844 11.707031 4.949219 12.503906 5.171875 C 14.414062 3.878906 15.253906 4.148438 15.253906 4.148438 C 15.796875 5.523438 15.453125 6.542969 15.351562 6.792969 C 15.992188 7.496094 16.378906 8.386719 16.378906 9.476562 C 16.378906 13.320312 14.039062 14.164062 11.8125 14.414062 C 12.171875 14.722656 12.5 15.332031 12.5 16.265625 L 12.5 19.007812 C 12.5 19.273438 12.660156 19.585938 13.167969 19.488281 C 17.136719 18.164062 20 14.417969 20 10 C 20 4.476562 15.523438 0 10 0 Z M 10 0 "/>
</g>
</svg>
